<?xml version="1.0" encoding="UTF-8" standalone="no"?>
<!DOCTYPE svg PUBLIC "-//W3C//DTD SVG 1.1//EN"
 "http://www.w3.org/Graphics/SVG/1.1/DTD/svg11.dtd">
<!-- Generated by graphviz version 2.43.0 (0)
 -->
<!-- Title: pagination Pages: 1 -->
<svg width="1112pt" height="648pt"
 viewBox="0.00 0.00 1112.12 648.00" xmlns="http://www.w3.org/2000/svg" xmlns:xlink="http://www.w3.org/1999/xlink">
<g id="graph0" class="graph" transform="scale(0.92 0.92) rotate(0) translate(28.8 676.8)">
<title>pagination</title>
<polygon fill="white" stroke="transparent" points="-28.8,28.8 -28.8,-676.8 1182.17,-676.8 1182.17,28.8 -28.8,28.8"/>
<!-- REQ -->
<g id="node1" class="node">
<title>REQ</title>
<polygon fill="#1e40af" stroke="black" points="100.87,-231.95 17.87,-231.95 17.87,-195.95 100.87,-195.95 100.87,-231.95"/>
<text text-anchor="middle" x="59.37" y="-211.15" font-family="Helvetica,sans-Serif" font-size="11.00" fill="white">API Request</text>
</g>
<!-- PAGE -->
<g id="node2" class="node">
<title>PAGE</title>
<polygon fill="#fef3c7" stroke="black" points="263.37,-400.95 197.91,-382.95 263.37,-364.95 328.84,-382.95 263.37,-400.95"/>
<text text-anchor="middle" x="263.37" y="-380.15" font-family="Helvetica,sans-Serif" font-size="11.00">paginated?</text>
</g>
<!-- REQ&#45;&gt;PAGE -->
<g id="edge1" class="edge">
<title>REQ&#45;&gt;PAGE</title>
<path fill="none" stroke="black" d="M81.99,-232.04C120.09,-263.92 198.91,-329.86 238.54,-363.01"/>
<polygon fill="black" stroke="black" points="236.45,-365.83 246.37,-369.57 240.94,-360.46 236.45,-365.83"/>
</g>
<!-- FIL -->
<g id="node5" class="node">
<title>FIL</title>
<polygon fill="#dbeafe" stroke="black" points="574.87,-234.95 415.87,-234.95 415.87,-198.95 574.87,-198.95 574.87,-234.95"/>
<text text-anchor="middle" x="495.37" y="-220.15" font-family="Helvetica,sans-Serif" font-size="11.00">filters: field=value</text>
<text text-anchor="middle" x="495.37" y="-208.15" font-family="Helvetica,sans-Serif" font-size="11.00">(eq / lt / gt / in / contains)</text>
</g>
<!-- REQ&#45;&gt;FIL -->
<g id="edge2" class="edge">
<title>REQ&#45;&gt;FIL</title>
<path fill="none" stroke="black" d="M101.2,-214.24C170.46,-214.72 312.48,-215.7 405.52,-216.34"/>
<polygon fill="black" stroke="black" points="405.75,-219.84 415.77,-216.41 405.79,-212.84 405.75,-219.84"/>
</g>
<!-- SRT -->
<g id="node6" class="node">
<title>SRT</title>
<polygon fill="#dbeafe" stroke="black" points="572.87,-83.95 417.87,-83.95 417.87,-47.95 572.87,-47.95 572.87,-83.95"/>
<text text-anchor="middle" x="495.37" y="-63.15" font-family="Helvetica,sans-Serif" font-size="11.00">sort: field:asc / field:desc</text>
</g>
<!-- REQ&#45;&gt;SRT -->
<g id="edge3" class="edge">
<title>REQ&#45;&gt;SRT</title>
<path fill="none" stroke="black" d="M101.2,-200.03C177.35,-174.06 341.46,-118.1 431.72,-87.32"/>
<polygon fill="black" stroke="black" points="432.95,-90.6 441.28,-84.06 430.69,-83.97 432.95,-90.6"/>
</g>
<!-- CUR -->
<g id="node3" class="node">
<title>CUR</title>
<polygon fill="#dbeafe" stroke="black" points="835.37,-599.95 669.37,-599.95 669.37,-563.95 835.37,-563.95 835.37,-599.95"/>
<text text-anchor="middle" x="752.37" y="-585.15" font-family="Helvetica,sans-Serif" font-size="11.00">cursor&#45;based pagination</text>
<text text-anchor="middle" x="752.37" y="-573.15" font-family="Helvetica,sans-Serif" font-size="11.00">(next_cursor / prev_cursor)</text>
</g>
<!-- PAGE&#45;&gt;CUR -->
<g id="edge4" class="edge">
<title>PAGE&#45;&gt;CUR</title>
<path fill="none" stroke="black" d="M290.56,-393.65C367.38,-425.05 593.32,-517.37 697.56,-559.97"/>
<polygon fill="black" stroke="black" points="696.38,-563.26 706.96,-563.81 699.02,-556.78 696.38,-563.26"/>
<text text-anchor="middle" x="495.37" y="-508.95" font-family="Helvetica,sans-Serif" font-size="10.00">yes</text>
</g>
<!-- FULL -->
<g id="node4" class="node">
<title>FULL</title>
<polygon fill="#dbeafe" stroke="black" points="795.87,-400.95 708.87,-400.95 708.87,-364.95 795.87,-364.95 795.87,-400.95"/>
<text text-anchor="middle" x="752.37" y="-380.15" font-family="Helvetica,sans-Serif" font-size="11.00">full response</text>
</g>
<!-- PAGE&#45;&gt;FULL -->
<g id="edge5" class="edge">
<title>PAGE&#45;&gt;FULL</title>
<path fill="none" stroke="black" d="M329.04,-382.95C426.36,-382.95 608.6,-382.95 698.48,-382.95"/>
<polygon fill="black" stroke="black" points="698.71,-386.45 708.71,-382.95 698.71,-379.45 698.71,-386.45"/>
<text text-anchor="middle" x="495.37" y="-385.95" font-family="Helvetica,sans-Serif" font-size="10.00">no</text>
</g>
<!-- RESP -->
<g id="node7" class="node">
<title>RESP</title>
<polygon fill="#dcfce7" stroke="black" points="1119.37,-275.95 957.37,-275.95 957.37,-239.95 1119.37,-239.95 1119.37,-275.95"/>
<text text-anchor="middle" x="1038.37" y="-255.15" font-family="Helvetica,sans-Serif" font-size="11.00">response: items + cursors</text>
</g>
<!-- CUR&#45;&gt;RESP -->
<g id="edge6" class="edge">
<title>CUR&#45;&gt;RESP</title>
<path fill="none" stroke="black" d="M769.45,-563.61C817.39,-508.92 959.4,-346.91 1014.84,-283.66"/>
<polygon fill="black" stroke="black" points="1017.51,-285.93 1021.47,-276.1 1012.24,-281.31 1017.51,-285.93"/>
</g>
<!-- FULL&#45;&gt;RESP -->
<g id="edge7" class="edge">
<title>FULL&#45;&gt;RESP</title>
<path fill="none" stroke="black" d="M794.36,-364.91C845.33,-342.48 932.3,-304.2 987.2,-280.04"/>
<polygon fill="black" stroke="black" points="988.65,-283.22 996.39,-275.99 985.83,-276.82 988.65,-283.22"/>
</g>
<!-- FIL&#45;&gt;RESP -->
<g id="edge8" class="edge">
<title>FIL&#45;&gt;RESP</title>
<path fill="none" stroke="black" d="M575.04,-222.92C673.88,-230.41 843.12,-243.23 947.12,-251.11"/>
<polygon fill="black" stroke="black" points="947.05,-254.62 957.29,-251.89 947.58,-247.64 947.05,-254.62"/>
</g>
<!-- SRT&#45;&gt;RESP -->
<g id="edge9" class="edge">
<title>SRT&#45;&gt;RESP</title>
<path fill="none" stroke="black" d="M547.27,-84.02C647.38,-119.55 869.5,-198.38 976.9,-236.49"/>
<polygon fill="black" stroke="black" points="976.02,-239.89 986.61,-239.94 978.36,-233.3 976.02,-239.89"/>
</g>
</g>
</svg>
